<svg height="496pt" viewBox="0 -136 496 496" width="496pt" xmlns="http://www.w3.org/2000/svg"><g fill="#231f20"><path d="m280 104c0 39.765625 32.234375 72 72 72s72-32.234375 72-72-32.234375-72-72-72c-39.738281.0625-71.9375 32.261719-72 72zm128 0c0 30.929688-25.070312 56-56 56s-56-25.070312-56-56 25.070312-56 56-56c30.914062.035156 55.964844 25.085938 56 56zm0 0"/><path d="m384 104c0 4.417969 3.582031 8 8 8s8-3.582031 8-8c.03125-10.390625-3.339844-20.507812-9.601562-28.800781-2.648438-3.535157-7.664063-4.25-11.199219-1.597657-3.535157 2.648438-4.25 7.664063-1.597657 11.199219 4.171876 5.527344 6.417969 12.273438 6.398438 19.199219zm0 0"/><path d="m344 64c0 4.417969 3.582031 8 8 8 4.40625-.011719 8.765625.898438 12.800781 2.664062 4.050781 1.769532 8.769531-.082031 10.535157-4.136718 1.765624-4.046875-.085938-8.761719-4.136719-10.527344-6.050781-2.652344-12.589844-4.015625-19.199219-4-4.417969 0-8 3.582031-8 8zm0 0"/><path d="m488 8h-95.921875c-25.652344-10.667969-54.503906-10.667969-80.15625 0h-303.921875c-4.417969 0-8 3.582031-8 8v176c0 4.417969 3.582031 8 8 8h8v16c0 4.417969 3.582031 8 8 8h48c4.417969 0 8-3.582031 8-8v-16h231.921875c25.652344 10.667969 54.503906 10.667969 80.15625 0h23.921875v16c0 4.417969 3.582031 8 8 8h48c4.417969 0 8-3.582031 8-8v-16h8c4.417969 0 8-3.582031 8-8v-176c0-4.417969-3.582031-8-8-8zm-48 96c-.03125 39.027344-25.785156 73.359375-63.242188 84.316406-37.453124 10.957032-77.652343-4.082031-98.710937-36.9375-21.0625-32.855468-17.945313-75.664062 7.652344-105.121094 25.59375-29.460937 67.546875-38.523437 103.019531-22.257812 31.238281 14.378906 51.261719 45.613281 51.28125 80zm-376 104h-32v-8h32zm-48-24v-160h269.601562c-23.820312 19.738281-37.601562 49.066406-37.601562 80s13.78125 60.261719 37.601562 80zm448 24h-32v-8h32zm16-24h-61.601562c23.820312-19.738281 37.601562-49.066406 37.601562-80s-13.78125-60.261719-37.601562-80h61.601562zm0 0"/><path d="m176 40h-128c-4.417969 0-8 3.582031-8 8v48c0 4.417969 3.582031 8 8 8h128c4.417969 0 8-3.582031 8-8v-48c0-4.417969-3.582031-8-8-8zm-8 48h-112v-32h112zm0 0"/><path d="m136 112h-88c-4.417969 0-8 3.582031-8 8s3.582031 8 8 8h88c4.417969 0 8-3.582031 8-8s-3.582031-8-8-8zm0 0"/><path d="m72 136h-24c-4.417969 0-8 3.582031-8 8s3.582031 8 8 8h24c4.417969 0 8-3.582031 8-8s-3.582031-8-8-8zm0 0"/><path d="m104 136h-8c-4.417969 0-8 3.582031-8 8s3.582031 8 8 8h8c4.417969 0 8-3.582031 8-8s-3.582031-8-8-8zm0 0"/></g></svg>